<svg width="29" height="29" viewBox="0 0 29 29" fill="none" xmlns="http://www.w3.org/2000/svg">
<g clip-path="url(#clip0_47_451)">
<path d="M4.28061 0.264471C4.67463 0.398387 5.0471 0.568198 5.42299 0.746198C5.52826 0.795255 5.63353 0.844312 5.742 0.894856C10.5131 3.15862 15.0682 6.81336 16.9074 11.9102C17.3953 13.3356 17.7241 14.8405 17.7401 16.3494C17.7418 16.4755 17.7418 16.4755 17.7434 16.6041C17.7812 20.3238 17.3596 24.3171 15.6218 27.6816C15.5492 27.6816 15.4765 27.6816 15.4016 27.6816C15.3581 27.5752 15.3145 27.4687 15.2696 27.3591C14.1879 24.7167 13.0988 22.0776 12.0038 19.4408C11.6518 18.593 11.3003 17.745 10.9487 16.897C10.8325 16.6167 10.7163 16.3365 10.6001 16.0562C10.1987 15.0885 9.79768 14.1206 9.39724 13.1524C9.00693 12.2088 8.61559 11.2656 8.22335 10.3228C8.09915 10.0243 7.97529 9.72553 7.85195 9.42659C7.71306 9.09046 7.57303 8.75485 7.43248 8.41942C7.39515 8.32826 7.35782 8.2371 7.31936 8.14318C7.15189 7.74746 7.06905 7.55548 6.703 7.31145C6.36424 7.3205 6.36424 7.3205 6.04235 7.42156C5.78558 7.73494 5.78558 7.73494 5.84254 8.10544C5.9381 8.5499 6.08495 8.94789 6.26644 9.36223C6.31764 9.48231 6.31764 9.48231 6.36988 9.6048C6.44374 9.77777 6.518 9.95056 6.59263 10.1232C6.79532 10.5922 6.99493 11.0625 7.19505 11.5326C7.23655 11.6298 7.27804 11.727 7.32078 11.8272C7.75098 12.8367 8.16708 13.8518 8.58174 14.8677C8.72874 15.2273 8.87585 15.5869 9.02304 15.9464C9.05916 16.0346 9.09528 16.1229 9.13249 16.2138C9.5095 17.1338 9.8916 18.0517 10.2747 18.9692C10.308 19.0491 10.3414 19.129 10.3757 19.2113C10.4091 19.2913 10.4425 19.3713 10.4769 19.4537C10.5451 19.6171 10.6133 19.7805 10.6816 19.9439C10.7157 20.0256 10.7498 20.1073 10.7849 20.1914C11.2976 21.4202 11.8068 22.6505 12.3161 23.8807C12.6565 24.7026 12.9973 25.5244 13.3422 26.3444C13.3946 26.4692 13.447 26.594 13.501 26.7226C13.595 26.9462 13.6894 27.1696 13.7841 27.3929C13.8241 27.488 13.8641 27.5832 13.9053 27.6812C13.9566 27.8024 13.9566 27.8024 14.0089 27.9261C14.0803 28.1221 14.0803 28.1221 14.0803 28.3423C11.0755 27.4682 8.37074 25.5304 6.04235 23.4975C5.9268 23.4025 5.8111 23.3078 5.69525 23.2132C5.43987 22.9963 5.22478 22.7891 5.01008 22.534C4.81034 22.2988 4.61072 22.0658 4.40104 21.8394C2.02222 19.2671 0.548331 15.7605 0.51066 12.2466C0.509577 12.1627 0.508493 12.0789 0.507377 11.9925C0.469481 8.29017 0.732624 3.34148 3.06941 0.264471C3.4563 0.0710254 3.87133 0.180878 4.28061 0.264471Z" fill="#00B433"/>
<path d="M25.9721 0.154361C26.5113 0.5544 26.7167 1.06092 26.9493 1.66836C27.0051 1.81166 27.0051 1.81166 27.0621 1.95785C28.0086 4.46039 28.7315 7.21469 28.7472 9.90547C28.7478 9.99223 28.7484 10.079 28.7491 10.1684C28.7501 10.3511 28.7508 10.5339 28.7513 10.7166C28.7523 10.9892 28.7557 11.2616 28.7592 11.5341C28.7813 14.8651 27.8045 18.0924 25.7519 20.7448C25.6817 20.8391 25.6116 20.9335 25.5394 21.0308C23.4987 23.663 20.6371 25.9541 17.6038 27.3513C17.5311 27.3513 17.4584 27.3513 17.3836 27.3513C17.4307 27.1939 17.4779 27.0365 17.5251 26.879C17.5553 26.7781 17.5856 26.6771 17.6167 26.5731C17.6796 26.3643 17.7427 26.1556 17.8063 25.9471C18.7872 22.7619 18.7872 22.7619 19.1462 19.4594C19.1744 18.2776 19.6162 17.3232 20.0812 16.2578C20.1658 16.0598 20.2501 15.8617 20.3342 15.6636C20.5093 15.2515 20.6853 14.84 20.862 14.4286C21.2447 13.5359 21.6154 12.6382 21.9862 11.7405C22.1037 11.4561 22.2215 11.1719 22.3393 10.8877C22.7999 9.77671 23.2592 8.66529 23.7148 7.55231C23.7645 7.43154 23.8142 7.31077 23.8653 7.18634C23.9099 7.07703 23.9545 6.96772 24.0004 6.8551C24.0387 6.76159 24.0769 6.66808 24.1164 6.57174C24.3123 6.07881 24.3123 6.07881 24.2035 5.57723C24.0077 5.29519 24.0077 5.29519 23.6598 5.28131C23.3103 5.30817 23.3103 5.30817 22.9991 5.54971C22.8842 5.7446 22.8842 5.7446 22.7958 5.97675C22.7592 6.06548 22.7226 6.15421 22.6849 6.24563C22.6461 6.34271 22.6073 6.4398 22.5673 6.53983C22.5258 6.64133 22.4842 6.74283 22.4414 6.84741C22.3052 7.18065 22.1705 7.51443 22.0357 7.84823C21.9423 8.07726 21.8489 8.30624 21.7553 8.53518C21.565 9.00111 21.375 9.46722 21.1853 9.93342C20.8149 10.8421 20.4375 11.7479 20.0591 12.6534C19.9515 12.9108 19.844 13.1683 19.7366 13.4259C19.5763 13.8102 19.4159 14.1944 19.2554 14.5786C19.1828 14.5786 19.1101 14.5786 19.0352 14.5786C19.022 14.5145 19.0088 14.4503 18.9952 14.3842C18.4066 11.5669 17.4591 9.01687 15.6218 6.7609C16.439 4.83063 19.4755 3.15871 21.2374 2.13632C21.3104 2.09333 21.3835 2.05035 21.4587 2.00605C22.3975 1.45603 23.3477 0.955563 24.348 0.525979C24.4778 0.469346 24.4778 0.469346 24.6102 0.411569C25.0709 0.220391 25.4676 0.0588747 25.9721 0.154361Z" fill="#00B433"/>
</g>
<defs>
<clipPath id="clip0_47_451">
<rect width="28.1879" height="28.1879" fill="white" transform="translate(0.536926 0.154362)"/>
</clipPath>
</defs>
</svg>
