<svg width="56" height="56" viewBox="0 0 56 56" fill="none" xmlns="http://www.w3.org/2000/svg">
<g clip-path="url(#clip0_45_411)">
<path d="M7.43749 0.218752C8.22029 0.484799 8.96027 0.822157 9.70702 1.17578C9.91617 1.27324 10.1253 1.3707 10.3408 1.47112C19.8194 5.96845 28.8689 13.2292 32.5227 23.3549C33.492 26.1868 34.1452 29.1764 34.1771 32.1742C34.1803 32.4246 34.1803 32.4246 34.1836 32.6801C34.2587 40.07 33.4212 48.0033 29.9687 54.6875C29.8244 54.6875 29.68 54.6875 29.5312 54.6875C29.4447 54.476 29.3581 54.2646 29.269 54.0467C27.12 48.7973 24.9562 43.5542 22.7809 38.3156C22.0815 36.6314 21.3832 34.9467 20.6848 33.262C20.454 32.7052 20.2231 32.1485 19.9922 31.5918C19.1948 29.6691 18.3981 27.7462 17.6025 25.8228C16.8271 23.9481 16.0497 22.0744 15.2704 20.2014C15.0237 19.6082 14.7776 19.0147 14.5326 18.4208C14.2566 17.7531 13.9784 17.0863 13.6992 16.4199C13.6251 16.2388 13.5509 16.0577 13.4745 15.8711C13.1418 15.085 12.9772 14.7036 12.25 14.2188C11.577 14.2367 11.577 14.2367 10.9375 14.4375C10.4274 15.0601 10.4274 15.0601 10.5405 15.7961C10.7304 16.6791 11.0221 17.4698 11.3827 18.293C11.4844 18.5315 11.4844 18.5315 11.5882 18.7749C11.7349 19.1185 11.8825 19.4618 12.0307 19.8047C12.4334 20.7365 12.8299 21.6708 13.2275 22.6047C13.31 22.7979 13.3924 22.991 13.4773 23.19C14.332 25.1955 15.1586 27.2122 15.9824 29.2305C16.2745 29.9449 16.5667 30.6593 16.8591 31.3735C16.9309 31.5488 17.0026 31.7241 17.0766 31.9047C17.8256 33.7325 18.5847 35.5561 19.3457 37.3789C19.4119 37.5376 19.4782 37.6962 19.5464 37.8597C19.6128 38.0187 19.6791 38.1776 19.7475 38.3414C19.883 38.666 20.0185 38.9906 20.154 39.3152C20.2218 39.4775 20.2895 39.6397 20.3593 39.8069C21.378 42.2481 22.3896 44.6923 23.4014 47.1363C24.0777 48.7692 24.7547 50.4017 25.4399 52.0309C25.544 52.2788 25.6481 52.5268 25.7554 52.7822C25.9422 53.2264 26.1296 53.6703 26.3178 54.1139C26.3972 54.3029 26.4766 54.4919 26.5585 54.6866C26.6604 54.9275 26.6604 54.9275 26.7645 55.1732C26.9062 55.5625 26.9062 55.5625 26.9062 56C20.9367 54.2634 15.5632 50.4137 10.9375 46.375C10.7079 46.1864 10.4781 45.9981 10.2479 45.8102C9.74056 45.3794 9.31325 44.9676 8.88671 44.4609C8.48991 43.9936 8.09332 43.5308 7.67675 43.0809C2.95084 37.9706 0.0227082 31.0041 -0.0521311 24.0232C-0.0542834 23.8566 -0.0564357 23.69 -0.0586533 23.5184C-0.13394 16.1631 0.388837 6.33173 5.03124 0.218752C5.79987 -0.16556 6.62439 0.0526807 7.43749 0.218752Z" fill="white"/>
<path d="M50.5313 2.98023e-06C51.6026 0.794747 52.0105 1.80103 52.4727 3.00782C52.5836 3.2925 52.5836 3.2925 52.6967 3.58294C54.5771 8.55465 56.0132 14.0265 56.0444 19.3722C56.0457 19.5446 56.0469 19.717 56.0482 19.8946C56.0503 20.2576 56.0517 20.6207 56.0526 20.9837C56.0547 21.5251 56.0615 22.0664 56.0684 22.6077C56.1123 29.2254 54.1718 35.637 50.0938 40.9063C49.9545 41.0938 49.8152 41.2813 49.6716 41.4745C45.6175 46.7039 39.9324 51.2556 33.9063 54.0313C33.7619 54.0313 33.6175 54.0313 33.4688 54.0313C33.5624 53.7185 33.6561 53.4058 33.7499 53.093C33.81 52.8925 33.8701 52.6919 33.932 52.4853C34.0568 52.0705 34.1823 51.6559 34.3086 51.2416C36.2573 44.9137 36.2573 44.9137 36.9706 38.3527C37.0265 36.0049 37.9042 34.1087 38.8281 31.9922C38.9961 31.5989 39.1636 31.2053 39.3307 30.8116C39.6785 29.9931 40.0282 29.1754 40.3792 28.3582C41.1395 26.5847 41.8759 24.8013 42.6127 23.0178C42.8461 22.4529 43.0801 21.8882 43.3142 21.3235C44.2291 19.1164 45.1417 16.9084 46.0469 14.6973C46.1455 14.4573 46.2442 14.2174 46.3458 13.9702C46.4344 13.753 46.523 13.5359 46.6143 13.3121C46.6903 13.1264 46.7662 12.9406 46.8445 12.7492C47.2338 11.7699 47.2338 11.7699 47.0176 10.7734C46.6287 10.2131 46.6287 10.2131 45.9375 10.1856C45.2431 10.2389 45.2431 10.2389 44.625 10.7188C44.3967 11.1059 44.3967 11.1059 44.221 11.5672C44.1484 11.7434 44.0757 11.9197 44.0008 12.1013C43.9237 12.2942 43.8465 12.4871 43.7671 12.6858C43.6846 12.8874 43.602 13.0891 43.517 13.2969C43.2464 13.9589 42.9787 14.622 42.7109 15.2852C42.5255 15.7402 42.3398 16.1951 42.154 16.6499C41.7758 17.5756 41.3984 18.5015 41.0215 19.4277C40.2856 21.2331 39.5359 23.0326 38.7841 24.8313C38.5704 25.3428 38.3569 25.8545 38.1435 26.3661C37.825 27.1296 37.5063 27.8929 37.1875 28.6563C37.0431 28.6563 36.8988 28.6563 36.75 28.6563C36.7237 28.5288 36.6975 28.4013 36.6704 28.27C35.5011 22.673 33.6188 17.6069 29.9688 13.125C31.5922 9.29019 37.6248 5.96865 41.125 3.9375C41.2701 3.8521 41.4152 3.76669 41.5647 3.6787C43.4297 2.58598 45.3176 1.59173 47.3047 0.738284C47.5625 0.625773 47.5625 0.625773 47.8256 0.510989C48.7409 0.131182 49.529 -0.189697 50.5313 2.98023e-06Z" fill="white"/>
</g>
<defs>
<clipPath id="clip0_45_411">
<rect width="56" height="56" fill="white"/>
</clipPath>
</defs>
</svg>
